<?xml version="1.0" encoding="iso-8859-1"?>
<!-- Generator: Adobe Illustrator 19.0.0, SVG Export Plug-In . SVG Version: 6.00 Build 0)  -->
<svg version="1.1" id="Capa_1" xmlns="http://www.w3.org/2000/svg" xmlns:xlink="http://www.w3.org/1999/xlink" x="0px" y="0px"
	 viewBox="0 0 490 490" style="enable-background:new 0 0 490 490;" xml:space="preserve">
<path id="XMLID_1449_" d="M432.742,65.709c-4.774-6.77-3.157-16.129,3.613-20.903c6.769-4.773,16.129-3.158,20.902,3.613
	l2.325,3.297l2.326-3.297c4.773-6.77,14.134-8.388,20.903-3.613s8.388,14.133,3.612,20.903l-11.288,16.005
	c-3.717,5.269-9.386,8.29-15.554,8.29s-11.837-3.021-15.554-8.289L432.742,65.709z M213.644,298.772
	c-6.768-4.772-16.129-3.156-20.902,3.615l-2.325,3.296l-2.324-3.296c-4.772-6.77-14.132-8.389-20.902-3.615
	c-6.771,4.774-8.39,14.133-3.615,20.903l11.29,16.009c3.717,5.268,9.387,8.288,15.555,8.288c6.168-0.001,11.837-3.023,15.552-8.29
	l11.288-16.006C222.033,312.905,220.414,303.546,213.644,298.772z M490,215.002V475c0,8.284-6.716,15-15,15H345.026
	c-0.009,0-0.018,0-0.026,0s-0.018,0-0.026,0H220.026c-0.018,0-0.035,0-0.053,0H95.026c-0.018,0-0.035,0-0.053,0H15
	c-8.284,0-15-6.716-15-15c0,0,0.042-311.475,0.187-312.368c0.35-2.199,1.177-4.239,2.371-6.01c1.192-1.774,2.772-3.307,4.68-4.457
	C8.011,151.696,379.364,1.103,379.364,1.103c7.674-3.113,16.424,0.587,19.537,8.265c3.112,7.678-0.589,16.424-8.266,19.536
	L91.925,150.003h63.049c0.018,0,0.035,0,0.053,0H245c0.293,0,0.585,0.008,0.874,0.025c1.549-1.888,3.194-3.724,4.934-5.497
	c15.512-15.817,36.161-24.528,58.138-24.528c0.001,0-0.001,0,0.001,0c18.108,0,35.315,5.915,49.489,16.846
	c14.173-10.93,31.379-16.846,49.489-16.846c21.979,0,42.626,8.711,58.139,24.528c17.91,18.261,25.743,42.967,23.5,66.864
	C489.849,212.551,490,213.759,490,215.002z M131.213,210.002h95.977c-0.779-10.06,0.225-20.243,3.009-30h-68.985L131.213,210.002z
	 M30,210.002h58.787l30-30H30V210.002z M118.787,430H30v30h58.787L118.787,430z M243.787,430h-82.574l-30,30h82.574L243.787,430z
	 M368.787,430h-82.574l-30,30h82.574L368.787,430z M460,430h-48.787l-30,30H460V430z M460,268.437l-69.34,70.701
	c-8.591,8.76-20.035,13.584-32.225,13.584s-23.634-4.824-32.225-13.583l-75.404-76.884c-6.545-6.674-11.746-14.211-15.6-22.252
	H95.026c-0.018,0-0.035,0-0.053,0H30v159.999h124.974c0.018,0,0.035,0,0.053,0h124.947c0.018,0,0.035,0,0.053,0h124.947
	c0.018,0,0.035,0,0.053,0H460V268.437z M444.646,165.537c-9.825-10.018-22.865-15.535-36.72-15.534
	c-13.854,0-26.895,5.517-36.719,15.534c-0.541,0.552-1.062,1.112-1.57,1.678c-2.762,3.07-6.665,4.965-10.794,4.965
	c-5.343,0-9.602-2.738-11.6-4.957c-0.516-0.572-1.04-1.137-1.583-1.691c-9.82-10.013-22.86-15.53-36.715-15.53
	s-26.895,5.517-36.72,15.534c-20.472,20.874-20.472,54.838,0,75.712l75.403,76.883c2.903,2.959,6.741,4.59,10.807,4.59
	s7.903-1.63,10.807-4.59l75.402-76.882l0.001,0C465.118,220.375,465.118,186.411,444.646,165.537z"/>
<g>
</g>
<g>
</g>
<g>
</g>
<g>
</g>
<g>
</g>
<g>
</g>
<g>
</g>
<g>
</g>
<g>
</g>
<g>
</g>
<g>
</g>
<g>
</g>
<g>
</g>
<g>
</g>
<g>
</g>
</svg>
